<?xml version="1.0" standalone="no"?>
<!DOCTYPE svg PUBLIC "-//W3C//DTD SVG 1.1//EN" "http://www.w3.org/Graphics/SVG/1.1/DTD/svg11.dtd" >
<svg xmlns="http://www.w3.org/2000/svg" xmlns:xlink="http://www.w3.org/1999/xlink" version="1.1">
<metadata></metadata>
<defs>
<font id="dtlnobeltlightitalic" horiz-adv-x="1433" >
<font-face units-per-em="2048" ascent="1638" descent="-410" />
<missing-glyph horiz-adv-x="409" />
<glyph horiz-adv-x="0" />
<glyph horiz-adv-x="682" />
<glyph unicode=" "  horiz-adv-x="409" />
<glyph unicode="&#x09;" horiz-adv-x="409" />
<glyph unicode="&#xa0;" horiz-adv-x="409" />
<glyph unicode="!" horiz-adv-x="614" d="M96 4l33 160h119l-33 -160h-119zM203 410l78 567l120 629h119l-121 -627l-147 -569h-49z" />
<glyph unicode="&#x22;" horiz-adv-x="935" d="M289 1110l59 498h158l-137 -498h-80zM719 1110l59 498h158l-137 -498h-80z" />
<glyph unicode="#" horiz-adv-x="1638" d="M74 449v110h340l161 438h-358v119h406l180 494h141l-186 -500h370l187 500h141l-186 -500h309v-113h-350l-162 -438h369v-110h-410l-166 -447l-139 -2l164 449h-371l-166 -447l-139 -2l164 449h-299zM555 559h371l161 438h-370z" />
<glyph unicode="$" d="M176 176l80 78q125 -160 303 -170l133 686l-119 76q-200 127 -200 338q0 128 68.5 229.5t178.5 157t240 61.5l23 113h45l-23 -113q109 -3 185.5 -36.5t136.5 -108.5l-80 -76q-36 48 -85 74.5t-86.5 33t-90.5 7.5l-125 -649l123 -78q204 -127 204 -340q0 -89 -31 -170 t-91 -148t-157.5 -108t-219.5 -45l-35 -176h-47l35 176q-225 7 -365 188zM502 1184q0 -149 155 -244l62 -39l121 623q-66 -4 -125 -26.5t-107.5 -63t-77 -105t-28.5 -145.5zM606 84q66 4 126.5 28t111.5 67t81.5 113.5t30.5 158.5q0 74 -43.5 140t-113.5 111l-66 41z" />
<glyph unicode="%" horiz-adv-x="2048" d="M98 1151q0 134 76 249.5t196.5 181t250.5 65.5q138 0 223.5 -84.5t85.5 -216.5q0 -135 -72 -250t-192 -180.5t-258 -65.5q-137 0 -223.5 85t-86.5 216zM215 1169q0 -96 62.5 -160.5t158.5 -64.5q152 0 264.5 111t112.5 268q0 98 -59 164.5t-158 66.5 q-154 0 -267.5 -113.5t-113.5 -271.5zM516 2l883 1600h125l-885 -1600h-123zM1118 279q0 134 76 249.5t196 180.5t250 65q138 0 224 -84.5t86 -216.5q0 -101 -42.5 -193.5t-114 -158.5t-167.5 -105t-199 -39q-137 0 -223 85t-86 217zM1235 297q0 -96 62.5 -160.5 t158.5 -64.5q152 0 264.5 111t112.5 268q0 98 -59 164.5t-158 66.5q-154 0 -267.5 -113.5t-113.5 -271.5z" />
<glyph unicode="&#x26;" d="M137 293q0 76 25 145t71.5 126.5t91.5 99t105 86.5l129 100l-98 127q-80 105 -80 233q0 116 64.5 212t169 148t223.5 52q136 0 210 -76.5t74 -197.5q0 -111 -68 -203.5t-206 -198.5l-141 -108l344 -490q104 107 135 156l71 -66q-35 -50 -151 -170l188 -266l-129 -2 l-139 195q-63 -53 -107.5 -86t-106.5 -68.5t-127.5 -52.5t-137.5 -17q-106 0 -187 26t-128.5 71.5t-71 102t-23.5 122.5zM252 328q0 -129 88 -193.5t221 -64.5q87 0 202.5 61.5t199.5 140.5l-351 500l-125 -94q-235 -174 -235 -350zM496 1204q0 -73 82 -182l73 -98l121 92 q83 63 129.5 108t77.5 101.5t31 117.5q0 87 -56.5 139t-152.5 52q-54 0 -108 -24.5t-98 -67t-71.5 -105.5t-27.5 -133z" />
<glyph unicode="'" horiz-adv-x="505" d="M289 1110l59 498h158l-137 -498h-80z" />
<glyph unicode="(" horiz-adv-x="724" d="M86 403q0 176 43 350t112.5 315t159 262.5t182 205t181.5 129.5l-21 -109q-235 -189 -380.5 -524t-145.5 -684q0 -93 13.5 -183t28.5 -147.5t45.5 -130.5t42.5 -96.5t42 -79.5l-22 -110q-120 125 -200.5 340.5t-80.5 461.5z" />
<glyph unicode=")" horiz-adv-x="724" d="M-37 -403l21 108q235 189 380.5 524t145.5 684q0 93 -13.5 183t-28.5 147.5t-45.5 130.5t-42.5 96.5t-42 79.5l22 111q120 -125 200.5 -341t80.5 -462q0 -176 -43 -350t-112.5 -315t-159 -262t-182 -204.5t-181.5 -129.5z" />
<glyph unicode="*" horiz-adv-x="860" d="M219 1257l35 97l293 -127l-21 321h105l-19 -323l287 106l31 -100l-297 -78l211 -283l-88 -57l-178 305l-191 -289l-88 64l227 260z" />
<glyph unicode="+" horiz-adv-x="1124" d="M82 553v102h420v500h119v-500h419v-102h-419v-551h-119v551h-420z" />
<glyph unicode="," horiz-adv-x="512" d="M129 -270q45 87 67 145t35 129l33 160h119l-16 -84q-28 -142 -62.5 -208t-103.5 -142h-72z" />
<glyph unicode="-" horiz-adv-x="641" d="M94 463l17 82h436l-17 -82h-436z" />
<glyph unicode="." horiz-adv-x="512" d="M180 4l33 160h119l-33 -160h-119z" />
<glyph unicode="/" horiz-adv-x="1069" d="M31 4l882 1600h125l-884 -1600h-123z" />
<glyph unicode="0" d="M123 498q0 135 24.5 271t69 260t112 232t149.5 187t185.5 124.5t215.5 45.5q218 0 325 -134t107 -382q0 -162 -34 -324t-100 -304.5t-155.5 -253t-209.5 -174.5t-253 -64q-219 0 -327.5 134t-108.5 382zM236 518q0 -110 19 -191.5t49 -129t76.5 -76t92.5 -38t105 -9.5 q99 0 193.5 53.5t170.5 150t134 221.5t90 276t32 306q0 110 -18.5 191.5t-48 130t-75 77t-91.5 38.5t-105 10q-168 0 -312.5 -142t-228 -375t-83.5 -493z" />
<glyph unicode="1" d="M444 1225l27 106q69 1 129 18.5t101.5 41t84 65t66.5 71.5t59 79h78l-311 -1606h-115l266 1372q-61 -64 -163 -105.5t-222 -41.5z" />
<glyph unicode="2" d="M104 2l621 627q1 1 22.5 21t42 41t54 56.5t63.5 71.5t63.5 80.5t60.5 91t49.5 95t35 100t12.5 98.5q0 65 -23.5 113t-66 75t-95 39.5t-116.5 12.5q-159 0 -275 -86.5t-155 -247.5h-102q38 191 183.5 310.5t363.5 119.5q88 0 160.5 -19.5t128.5 -59t87 -103t31 -146.5 q0 -277 -364 -641l-543 -547h764l-21 -104z" />
<glyph unicode="3" d="M96 150l82 77q69 -76 146.5 -111.5t183.5 -35.5q88 0 170 25.5t151 74.5t110.5 131.5t41.5 186.5q0 53 -15.5 98.5t-50.5 87t-102.5 66t-161.5 24.5h-116l18 105h119q119 0 216 65.5t147 163.5t50 201q0 219 -280 219q-105 0 -209 -49t-176 -136l-62 64 q78 100 208.5 159.5t260.5 59.5q189 0 278 -85.5t89 -233.5q0 -108 -57.5 -214t-141 -173.5t-166.5 -83.5v-7q107 -6 187 -93.5t80 -223.5q0 -157 -82 -278t-218.5 -184.5t-303.5 -63.5q-123 0 -219.5 37.5t-176.5 126.5z" />
<glyph unicode="4" d="M51 428l23 121l964 1057h68l-205 -1069h236l-23 -113h-235l-84 -424h-107l82 428h-719zM193 537h598l163 837z" />
<glyph unicode="5" d="M94 162l84 82q28 -34 55 -59t68 -51t97 -40t124 -14q111 0 202.5 39.5t148.5 99.5t96 135.5t55 143.5t16 127q0 144 -83 229.5t-220 85.5q-218 0 -395 -174l-61 33l184 807h792l-20 -97h-696l-131 -585q40 38 98 63.5t114 35.5t88.5 13.5t53.5 3.5q74 0 142 -24t125 -70 t91.5 -123.5t34.5 -175.5q0 -88 -22 -176.5t-73 -176.5t-126 -156t-190.5 -110t-256.5 -42q-127 0 -230.5 49.5t-164.5 126.5z" />
<glyph unicode="6" d="M211 428q0 138 41.5 285t108 274.5t154 248.5t175.5 214t176 164h148q-172 -124 -347.5 -346t-248.5 -398l8 -2q141 174 401 174q170 0 283 -115t113 -284q0 -133 -50 -254.5t-134 -208.5t-198.5 -138.5t-238.5 -51.5q-182 0 -286.5 118.5t-104.5 319.5zM322 430 q0 -152 80.5 -251t222.5 -99q125 0 236.5 74.5t179 202.5t67.5 276q0 77 -27.5 138.5t-72.5 99t-98.5 57.5t-108.5 20q-64 0 -129.5 -19t-128.5 -61t-112 -101.5t-79 -146.5t-30 -190z" />
<glyph unicode="7" d="M123 0l1003 1499h-854l21 107h1018l-1061 -1606h-127z" />
<glyph unicode="8" d="M143 381q0 162 111 300.5t250 178.5q-27 15 -41.5 24t-46.5 36.5t-50 54.5t-33.5 73t-15.5 99q0 70 21.5 138t68 130.5t113 109.5t162.5 75t209 28t194.5 -29t125 -78.5t62.5 -105t19 -119.5q0 -75 -21.5 -141t-55 -111.5t-80 -83.5t-89.5 -61t-90 -41q93 -33 154 -114 t61 -212q0 -155 -83.5 -281.5t-221.5 -195.5t-299 -69q-196 0 -310 109.5t-114 285.5zM260 387q0 -131 88.5 -219t239.5 -88q99 0 188 36.5t151.5 97.5t99 143t36.5 171q0 41 -8 78.5t-30.5 77t-58 68t-95.5 47t-138 18.5q-99 0 -180.5 -27t-135 -70t-90 -100.5t-52 -115.5 t-15.5 -117zM432 1161q0 -125 86.5 -184t239.5 -59q83 0 157 22t134.5 65t96.5 116t36 167q0 117 -83 182.5t-222 65.5q-190 0 -317.5 -105.5t-127.5 -269.5z" />
<glyph unicode="9" d="M195 983q0 142 52 264t138.5 203t198.5 126.5t233 45.5q190 0 286.5 -112t96.5 -304q0 -119 -31 -239t-65 -208t-115 -200t-122 -166.5t-150 -159t-133.5 -126.5t-134.5 -115q-9 -8 -13 -12l-69 71q207 160 384.5 364t241.5 339l-6 4q-186 -189 -416 -189 q-175 0 -275.5 115t-100.5 299zM303 979q0 -81 27 -144t72 -99t97 -54t107 -18q63 0 129 19.5t130.5 62.5t115 104t82 152.5t31.5 199.5q0 144 -75.5 236t-223.5 92q-139 0 -252 -71.5t-176.5 -198t-63.5 -281.5z" />
<glyph unicode=":" horiz-adv-x="512" d="M104 4l33 160h119l-33 -160h-119zM258 795l33 159h119l-33 -159h-119z" />
<glyph unicode=";" horiz-adv-x="512" d="M53 -270q43 74 66.5 136t36.5 138l32 160h119l-16 -84q-28 -142 -62.5 -208t-103.5 -142h-72zM309 795l33 159h119l-33 -159h-119z" />
<glyph unicode="&#x3c;" horiz-adv-x="1124" d="M143 559v119l754 520v-160l-653 -420l655 -425v-160z" />
<glyph unicode="=" horiz-adv-x="1124" d="M125 246v121h870v-121h-870zM125 682v121h870v-121h-870z" />
<glyph unicode="&#x3e;" horiz-adv-x="1124" d="M141 1036v160l756 -526v-119l-754 -520v159l654 420z" />
<glyph unicode="?" horiz-adv-x="1069" d="M174 1364q42 101 154 173.5t264 72.5q39 0 77 -6t80.5 -23t74 -43t52.5 -70.5t21 -101.5q0 -58 -26 -127t-63.5 -126.5t-75 -106.5t-63.5 -77l-26 -28q-52 -60 -80 -96.5t-69 -100t-68 -135.5t-43 -157h-117q23 118 58 203t92 165q27 37 96.5 119t120.5 144.5t94 146.5 t43 151q0 46 -18.5 79.5t-50.5 51.5t-69.5 26.5t-80.5 8.5q-30 0 -62.5 -7t-72.5 -24.5t-78 -54t-64 -88.5zM190 0l33 160h119l-33 -160h-119z" />
<glyph unicode="@" horiz-adv-x="2048" d="M166 739q0 181 68 346t183 284.5t274 190t333 70.5q258 0 451 -99.5t300 -292t107 -456.5q0 -79 -16.5 -150.5t-47.5 -132.5t-58.5 -102t-67.5 -92h-398v92q-82 -65 -166.5 -89.5t-187.5 -24.5q-52 0 -97 8t-89.5 28t-75.5 52t-50.5 84.5t-19.5 119.5q0 59 23 112.5 t70.5 101t134.5 76t202 28.5q42 0 128.5 -5.5t127.5 -13.5v99q0 123 -75.5 170t-225.5 47q-152 0 -268 -74l-47 96q159 78 360 78q87 0 151.5 -14t114.5 -45t75.5 -86t25.5 -133v-592h221q139 195 139 362q0 219 -86 384t-255 258.5t-400 93.5q-152 0 -290 -62.5 t-237.5 -167t-158.5 -248.5t-59 -301q0 -158 59 -302t158.5 -248t237.5 -166t290 -62h152v-113h-152q-174 0 -333 70.5t-274 190t-183 284.5t-68 346zM709 567q0 -91 66 -141.5t186 -50.5q79 0 169 35t152 86v288q-117 19 -281 19q-135 0 -213.5 -57.5t-78.5 -178.5z" />
<glyph unicode="A" horiz-adv-x="1378" d="M-59 0l919 1669l273 -1669h-117l-86 547h-568l-296 -547h-125zM418 645h493l-112 711z" />
<glyph unicode="B" horiz-adv-x="1355" d="M123 0l311 1606h367q202 0 310 -89t108 -233q0 -158 -95.5 -295.5t-230.5 -177.5v-8q42 0 87.5 -22.5t84 -61.5t63.5 -101t25 -133q0 -94 -37.5 -180t-108 -154.5t-184 -109.5t-254.5 -41h-446zM262 104h303q224 0 342.5 104.5t118.5 266.5q0 55 -18 100t-58 82.5 t-113 58.5t-175 21h-277zM403 838h248q126 0 228.5 59t159.5 158.5t57 216.5q0 34 -8 64t-32 62t-62 54t-103.5 36.5t-151.5 14.5h-207z" />
<glyph unicode="C" horiz-adv-x="1560" d="M68 623q0 201 77.5 385t208 317.5t309.5 213t373 79.5q143 0 269 -40.5t208 -123.5l-88 -76q-79 67 -175 99t-232 32q-142 0 -273 -50.5t-229.5 -137t-172.5 -197.5t-112 -236t-38 -249q0 -249 147.5 -403t411.5 -154q275 0 538 205l58 -82q-134 -122 -301 -175t-316 -53 q-306 0 -484.5 169.5t-178.5 476.5z" />
<glyph unicode="D" horiz-adv-x="1665" d="M125 4l311 1606h410q159 0 288 -37.5t226 -112.5t150 -196t53 -279q0 -188 -55 -349t-150.5 -275.5t-223.5 -196t-275 -121t-304 -39.5h-430zM262 104h287q190 0 356 66.5t282.5 181.5t183.5 276t67 345q0 88 -18 163t-63.5 144.5t-117 118t-185.5 77.5t-261 29h-258z " />
<glyph unicode="E" horiz-adv-x="1277" d="M125 0l311 1606h799l-18 -101h-682l-123 -626h655l-18 -103h-656l-131 -672h735l-20 -104h-852z" />
<glyph unicode="F" horiz-adv-x="1161" d="M123 0l311 1606h799l-19 -101h-682l-122 -628h655l-18 -103h-658l-151 -774h-115z" />
<glyph unicode="G" horiz-adv-x="1732" d="M86 627q0 198 79.5 381.5t211.5 317t313 213t375 79.5q175 0 299 -47.5t229 -132.5l-77 -88q-100 82 -210.5 120.5t-261.5 38.5q-170 0 -325 -71.5t-264.5 -190.5t-174.5 -279t-65 -331t73 -297.5t197 -191t283 -64.5q100 0 203.5 28.5t205 85.5t191.5 153.5t150 221.5 h-506l20 109h651q-46 -149 -133.5 -277t-205 -223.5t-270.5 -150t-320 -54.5q-308 0 -488 172.5t-180 477.5z" />
<glyph unicode="H" horiz-adv-x="1744" d="M123 0l311 1606h115l-139 -729h954l143 729h115l-311 -1606h-115l147 774h-954l-151 -774h-115z" />
<glyph unicode="I" horiz-adv-x="671" d="M123 0l311 1606h115l-311 -1606h-115z" />
<glyph unicode="J" horiz-adv-x="671" d="M-147 -6l20 96q47 0 90.5 8.5t88.5 30.5t81.5 56.5t65.5 90t43 127.5l235 1205h115l-230 -1172q-20 -102 -55.5 -179.5t-81 -127t-105.5 -80t-124 -43t-143 -12.5z" />
<glyph unicode="K" horiz-adv-x="1429" d="M121 0l311 1606h115l-135 -695l864 697h156l-897 -729l636 -879h-141l-629 852l-165 -852h-115z" />
<glyph unicode="L" horiz-adv-x="1101" d="M123 0l311 1606h115l-289 -1502h698l-20 -104h-815z" />
<glyph unicode="M" horiz-adv-x="2023" d="M117 0l321 1659l549 -934l920 938l-324 -1663h-115l261 1331l-775 -790l-462 790l-261 -1331h-114z" />
<glyph unicode="N" horiz-adv-x="1771" d="M121 0l323 1669l830 -1395l264 1360h115l-328 -1685l-827 1394l-262 -1343h-115z" />
<glyph unicode="O" horiz-adv-x="1812" d="M82 621q0 108 30.5 222.5t87 225t143.5 209.5t193.5 173.5t243.5 118.5t287 44q134 0 244.5 -32.5t188 -90t130.5 -137.5t78 -174.5t25 -200.5q0 -148 -43.5 -294t-129 -274t-202.5 -226t-276 -155t-337 -57q-159 0 -286.5 51t-209 140t-124.5 205.5t-43 251.5zM211 639 q0 -252 156 -403.5t399 -151.5q167 0 321.5 70t268 188.5t182 284t68.5 346.5q0 253 -152 396.5t-407 143.5q-166 0 -322 -75.5t-267.5 -197t-179 -280.5t-67.5 -321z" />
<glyph unicode="P" horiz-adv-x="1331" d="M123 0l311 1606h402q205 0 320.5 -93t115.5 -270q0 -78 -24.5 -155t-76.5 -149t-126.5 -127.5t-183 -88.5t-236.5 -33h-250l-137 -690h-115zM393 793h242q234 0 372 124t138 318q0 52 -14.5 96t-49 85t-103 65t-165.5 24h-281z" />
<glyph unicode="Q" horiz-adv-x="1812" d="M84 621q0 108 30.5 222.5t87 225t143.5 209.5t193.5 173.5t243.5 118.5t287 44q134 0 244.5 -32.5t188 -90t130.5 -137.5t78 -174.5t25 -200.5q0 -233 -106 -452t-296 -363q87 -61 205 -103l-70 -90q-109 46 -229 131q-224 -129 -491 -129q-159 0 -287 51t-209.5 140 t-124.5 205.5t-43 251.5zM213 639q0 -252 156 -403.5t399 -151.5q202 0 381 98q-53 60 -90 113l78 65q53 -72 102 -118q169 123 269 315.5t100 415.5q0 253 -152 396.5t-407 143.5q-166 0 -322 -75.5t-267.5 -197t-179 -280.5t-67.5 -321z" />
<glyph unicode="R" horiz-adv-x="1417" d="M121 -2l311 1606h408q89 0 164 -21t133.5 -63.5t91.5 -112.5t33 -162q0 -68 -19 -138t-69 -145t-124.5 -132.5t-197.5 -94.5t-277 -37l478 -698l-146 -2l-520 782l-151 -782h-115zM389 793h223q122 0 224 36.5t167.5 97t101.5 136t36 156.5q0 38 -7 73t-28.5 75 t-56.5 69.5t-96.5 49t-141.5 19.5h-283z" />
<glyph unicode="S" horiz-adv-x="1155" d="M53 176l80 78q137 -170 326 -170q69 0 134 22t120 65t88 115.5t33 164.5q0 74 -43.5 140t-114.5 111l-225 144q-201 128 -201 338q0 99 42.5 184t114 142.5t164.5 89.5t193 32q117 0 196.5 -33.5t143.5 -111.5l-80 -76q-30 39 -65 63.5t-74 35t-68.5 13.5t-71.5 3 q-69 0 -132.5 -21t-116.5 -61t-85 -107.5t-32 -152.5q0 -149 156 -244l225 -141q205 -127 205 -340q0 -91 -33 -174t-96 -150t-165.5 -107t-230.5 -40q-242 0 -387 188z" />
<glyph unicode="T" horiz-adv-x="1150" d="M201 1505l18 101h1020l-18 -101h-451l-295 -1505h-115l291 1505h-450z" />
<glyph unicode="U" horiz-adv-x="1757" d="M201 498q0 75 16 166l184 944h115l-176 -901q-21 -108 -21 -193q0 -214 111.5 -319t302.5 -105q235 0 398.5 163.5t222.5 469.5l172 885h114l-188 -965q-24 -126 -84 -241t-151 -210t-222.5 -151.5t-283.5 -56.5q-128 0 -227.5 40t-160 110.5t-91.5 162.5t-31 201z" />
<glyph unicode="V" horiz-adv-x="1277" d="M195 1606h122l207 -1364l776 1364h132l-981 -1706z" />
<glyph unicode="W" horiz-adv-x="2007" d="M197 1606h122l115 -1325l746 1423l168 -1419l622 1321h127l-821 -1717l-170 1461l-754 -1473z" />
<glyph unicode="X" horiz-adv-x="1183" d="M-137 0l696 850l-328 754h136l278 -648l533 650h141l-625 -762l365 -844h-131l-320 737l-604 -737h-141z" />
<glyph unicode="Y" horiz-adv-x="1191" d="M158 1604h125l317 -732l588 734h135l-688 -854l-148 -752h-114l147 750z" />
<glyph unicode="Z" horiz-adv-x="1425" d="M-39 0l1272 1505h-926l19 101h1136l-1274 -1500h979l-20 -106h-1186z" />
<glyph unicode="[" horiz-adv-x="876" d="M14 -379l385 1985h465l-16 -86l-348 -2l-353 -1809h355l-17 -88h-471z" />
<glyph unicode="\" horiz-adv-x="1069" d="M342 1604h125l260 -1600h-123z" />
<glyph unicode="]" horiz-adv-x="876" d="M10 -379l17 88h354l352 1809l-348 2l16 86h465l-385 -1985h-471z" />
<glyph unicode="^" horiz-adv-x="1638" d="M219 788l567 822h109l563 -819h-119l-499 698l-502 -701h-119z" />
<glyph unicode="_" horiz-adv-x="1024" d="M33 -168h952v-111h-952v111z" />
<glyph unicode="`" horiz-adv-x="2048" d="M498 1372h104l178 -260h-104z" />
<glyph unicode="a" horiz-adv-x="1126" d="M104 223q0 45 15.5 92.5t52 97t90.5 88t139 63t189 24.5q40 0 130.5 -6.5t127.5 -14.5l18 101q1 7 4 18.5t5 20.5t2 16q0 92 -70 129t-203 37q-146 0 -299 -78l-26 92q175 76 372 76q150 0 240 -60t90 -165q0 -25 -6 -49l-133 -705h-103l21 100q-173 -118 -383 -118 q-37 0 -71.5 6t-72 22.5t-65.5 42.5t-46 69.5t-18 100.5zM207 240q0 -91 53 -131.5t162 -40.5q83 0 178.5 36.5t171.5 90.5l55 284q-20 7 -110 14t-170 7q-145 0 -242.5 -78t-97.5 -182z" />
<glyph unicode="b" horiz-adv-x="1191" d="M96 2l322 1606h102l-170 -826q52 80 162 138.5t254 58.5q163 0 256.5 -97.5t93.5 -279.5q0 -113 -40 -223t-109.5 -198t-174.5 -142.5t-225 -54.5q-70 0 -131 19t-101 48.5t-65.5 59.5t-36.5 59l-36 -168h-101zM289 381q0 -46 9 -88t30.5 -82.5t54.5 -70.5t84 -48 t115 -18q113 0 210.5 71t154.5 191.5t57 259.5q0 133 -69 212t-204 79q-120 0 -222.5 -71t-161 -187.5t-58.5 -247.5z" />
<glyph unicode="c" horiz-adv-x="1056" d="M94 369q0 118 41.5 228t115.5 196t185.5 138t241.5 52q99 0 185 -42t128 -120l-82 -67q-80 135 -274 135q-123 0 -223 -75t-152.5 -191.5t-52.5 -245.5q0 -142 80 -221.5t209 -79.5q93 0 183 37t161 102l45 -88q-95 -85 -189.5 -115t-214.5 -30q-176 0 -281.5 104.5 t-105.5 282.5z" />
<glyph unicode="d" horiz-adv-x="1191" d="M72 362q0 105 38.5 213t106.5 199t174 149t230 58q71 0 129.5 -17.5t97.5 -47.5t64 -62t40 -68l162 824h100l-313 -1610l-100 -2l33 174q-142 -188 -410 -188q-154 0 -253 98t-99 280zM186 375q0 -135 70 -216t201 -81q98 0 182.5 44.5t140.5 116t87.5 161.5t31.5 182 q0 46 -9 88t-30.5 82.5t-54.5 70.5t-84 48t-115 18q-116 0 -214.5 -76.5t-152 -194t-53.5 -243.5z" />
<glyph unicode="e" horiz-adv-x="1095" d="M84 383q0 176 81 314.5t212.5 212t286.5 73.5q157 0 253.5 -86t96.5 -264q0 -65 -15 -144h-792q-8 -47 -8 -94q0 -85 26.5 -149t70.5 -99.5t95 -53t107 -17.5q203 0 372 162l52 -86q-115 -88 -215 -128t-228 -40q-169 0 -282 108t-113 291zM231 586h672q4 36 4 51 q0 113 -70.5 183.5t-187.5 70.5q-59 0 -118.5 -17.5t-117.5 -52.5t-106.5 -95.5t-75.5 -139.5z" />
<glyph unicode="f" horiz-adv-x="595" d="M133 0l168 864h-158l19 92h157l78 402q11 59 29.5 102.5t45.5 71t54 44.5t67 25t73.5 10.5t83.5 2.5l-17 -94h-28q-40 0 -59.5 -1t-44.5 -6.5t-36.5 -16t-25.5 -31.5t-22.5 -51t-16.5 -75l-72 -383h193l-19 -92h-192l-170 -864h-107z" />
<glyph unicode="g" horiz-adv-x="1189" d="M25 -279l73 80q47 -50 135 -82t158 -32q182 0 289.5 71t142.5 242l39 184q-53 -76 -161.5 -136t-249.5 -60q-157 0 -255 96t-98 278q0 118 39.5 229.5t109 198t173.5 139t225 52.5q70 0 128.5 -17.5t97.5 -46.5t64.5 -60t41.5 -66l35 167h100l-176 -909 q-23 -115 -66.5 -199t-95 -132t-120 -76t-128.5 -36.5t-133 -8.5q-217 0 -368 124zM211 369q0 -133 68.5 -212t203.5 -79q79 0 149.5 29t123 79t91 114t58 136.5t19.5 145.5q0 46 -9 88t-30.5 82.5t-54.5 70.5t-84 48t-115 18q-173 0 -296.5 -150.5t-123.5 -369.5z" />
<glyph unicode="h" horiz-adv-x="1193" d="M135 0l311 1604h103l-156 -801q38 53 87.5 89.5t97.5 53t83.5 23t67.5 6.5q42 0 81.5 -7.5t78 -25.5t67.5 -45.5t46.5 -70t17.5 -95.5q0 -38 -8 -74l-127 -657h-103l115 590q12 62 12 108q0 98 -50.5 139.5t-151.5 41.5q-134 0 -233.5 -91t-125.5 -223l-110 -565h-103z " />
<glyph unicode="i" horiz-adv-x="561" d="M133 0l186 958h103l-186 -958h-103zM365 1188l45 231h102l-45 -231h-102z" />
<glyph unicode="j" horiz-adv-x="561" d="M-172 -334l18 88q76 3 113 14q141 42 174 214l191 972h102l-195 -997q-25 -128 -121.5 -211.5t-250.5 -83.5q-11 0 -31 4zM369 1188l45 231h102l-45 -231h-102z" />
<glyph unicode="k" horiz-adv-x="1032" d="M135 0l314 1608h102l-209 -1080l518 430h141l-460 -389l307 -569h-131l-271 494l-137 -111l-73 -383h-101z" />
<glyph unicode="l" horiz-adv-x="561" d="M135 0l311 1606h103l-311 -1606h-103z" />
<glyph unicode="m" horiz-adv-x="1806" d="M137 0l187 958h102l-31 -153q115 172 365 172q52 0 103 -18.5t95.5 -64t59.5 -110.5q65 98 164 145.5t207 47.5q126 0 204 -64t78 -182q0 -47 -6 -74l-127 -657l-106 -2l118 610q11 60 11 97q0 80 -48.5 127t-169.5 47q-66 0 -127.5 -30t-105.5 -77t-73.5 -101.5 t-39.5 -105.5l-110 -567h-103l115 590q12 58 12 108q0 92 -47.5 138.5t-156.5 46.5q-136 0 -234 -95t-125 -233l-108 -553h-103z" />
<glyph unicode="n" horiz-adv-x="1193" d="M133 -2l186 958h103l-31 -153q38 53 87.5 89.5t97.5 53t83.5 23t67.5 6.5q42 0 81.5 -7.5t78 -25.5t67.5 -45.5t46.5 -70t17.5 -95.5q0 -38 -8 -74l-127 -657h-103l115 590q12 62 12 108q0 98 -50.5 139.5t-151.5 41.5q-134 0 -233.5 -91t-125.5 -223l-110 -567h-103z " />
<glyph unicode="o" horiz-adv-x="1183" d="M92 358q0 82 23 168.5t72.5 169.5t118 148t168.5 105t216 40q196 0 299 -110t103 -281q0 -119 -37 -223t-98 -176.5t-139 -125t-161 -77.5t-163 -25q-81 0 -153 24.5t-128 71t-88.5 122t-32.5 169.5zM205 379q0 -142 82 -224.5t227 -82.5q123 0 229.5 68.5t170 187.5 t63.5 260q0 148 -87 225.5t-220 77.5q-131 0 -238.5 -69t-167 -186.5t-59.5 -256.5z" />
<glyph unicode="p" horiz-adv-x="1191" d="M18 -403l265 1359h100l-35 -168q52 74 162 132.5t252 58.5q161 0 255.5 -100.5t94.5 -276.5q0 -113 -38.5 -223t-107.5 -198t-174.5 -142.5t-228.5 -54.5q-69 0 -130.5 20t-102 50t-66 60t-35.5 56l-110 -573h-101zM285 381q0 -46 9 -88t30.5 -82.5t54.5 -70.5t84 -48 t115 -18q93 0 174 47.5t134 123t83 167.5t30 184q0 133 -68.5 212t-203.5 79q-119 0 -221.5 -71t-161.5 -187.5t-59 -247.5z" />
<glyph unicode="q" horiz-adv-x="1191" d="M68 362q0 111 41 222t111 199t174.5 143t221.5 55q75 0 135 -18.5t98 -50.5t61 -62.5t38 -65.5l35 174h100l-270 -1370h-100l112 576q-51 -73 -156.5 -126.5t-248.5 -53.5q-154 0 -253 98t-99 280zM182 375q0 -135 70 -216t201 -81q93 0 176.5 43t141 113t91 161.5 t33.5 186.5q0 46 -9 88t-30.5 82.5t-54.5 70.5t-84 48t-115 18q-167 0 -293.5 -150.5t-126.5 -363.5z" />
<glyph unicode="r" horiz-adv-x="806" d="M129 0l186 958h103l-31 -159q34 53 79.5 90.5t92 55t84 25t72.5 7.5q67 0 107.5 -16.5t80.5 -49.5l-72 -98q-47 59 -149 59q-83 0 -157 -43t-119.5 -107t-59.5 -132l-115 -590h-102z" />
<glyph unicode="s" horiz-adv-x="890" d="M80 61l55 95q49 -37 113.5 -57.5t122.5 -20.5q120 0 183.5 51t63.5 137q0 24 -8.5 45t-17.5 34t-31 28.5t-31.5 20.5t-38 18.5t-32.5 15.5l-90 45q-22 11 -34.5 18t-39.5 28t-42.5 41.5t-28.5 55.5t-13 74q0 122 94 207.5t252 85.5q162 0 254 -61l-57 -86 q-40 26 -98 42.5t-109 16.5q-113 0 -170.5 -56.5t-57.5 -129.5q0 -58 34.5 -92.5t97.5 -65.5l90 -45q85 -44 119 -73q71 -63 71 -150q0 -56 -21.5 -107t-65 -94.5t-118.5 -69.5t-172 -26q-173 0 -274 75z" />
<glyph unicode="t" horiz-adv-x="643" d="M150 872l16 86h143l72 357h106l-67 -357h198l-16 -86h-199l-108 -546q-12 -74 -12 -95q0 -90 33.5 -120.5t129.5 -30.5q38 0 70 8l-14 -82q-35 -12 -107 -12q-41 0 -76.5 9t-70.5 30.5t-55.5 66t-20.5 107.5q0 28 12 98l109 567h-143z" />
<glyph unicode="u" horiz-adv-x="1193" d="M156 225q0 20 8 74l127 657h102l-114 -589q-15 -77 -15 -109q0 -97 51.5 -138.5t153.5 -41.5q134 0 233 90.5t125 222.5l111 567h102l-186 -958h-102l30 154q-38 -53 -87.5 -89.5t-97.5 -53t-83.5 -23t-67.5 -6.5q-53 0 -102 12.5t-92.5 39.5t-69.5 76t-26 115z" />
<glyph unicode="v" horiz-adv-x="890" d="M113 958h108l139 -745l433 745h110l-594 -1015z" />
<glyph unicode="w" horiz-adv-x="1409" d="M137 958h113l123 -739l422 772l118 -760l410 727h113l-580 -1024l-119 756l-418 -756z" />
<glyph unicode="x" horiz-adv-x="907" d="M-10 0l432 514l-203 444h117l162 -356l299 356h121l-377 -448l233 -510h-115l-192 420l-354 -420h-123z" />
<glyph unicode="y" horiz-adv-x="940" d="M-109 -393l43 90q59 -21 109 -21q49 0 97.5 31.5t82.5 76t56.5 85t29.5 65.5l-151 1024h110l127 -864l422 864h107l-537 -1083q-76 -154 -164.5 -221.5t-193.5 -67.5q-88 0 -138 21z" />
<glyph unicode="z" horiz-adv-x="980" d="M-27 0l779 842h-562l19 98h758l-772 -842h596l-19 -98h-799z" />
<glyph unicode="{" horiz-adv-x="890" d="M164 541l22 110h50q59 0 99 16t63.5 52t35 70.5t23.5 93.5l73 381q17 89 44.5 150t75.5 107t123 67.5t181 21.5h72l-18 -97h-78q-57 0 -100.5 -13t-70.5 -33.5t-46 -54t-28.5 -65.5t-18.5 -77l-66 -334q-4 -19 -9.5 -52t-9 -49.5t-11 -44t-16 -42.5t-22.5 -36.5 t-33 -35.5t-45.5 -30t-61.5 -29t-79 -25q35 -14 62.5 -28.5t47 -28.5t32.5 -31.5t21.5 -31.5t11.5 -35.5t3.5 -36.5t-3.5 -40.5t-7 -41.5t-9.5 -46.5t-10.5 -48.5l-58 -293q-9 -45 -11.5 -76t4 -65t25 -54.5t57 -34t95.5 -13.5h78l-18 -95h-72q-140 0 -212 40t-85 116.5 t8 188.5l68 346q9 48 13 81t0.5 69t-18 58t-45 36t-77.5 14h-49z" />
<glyph unicode="|" horiz-adv-x="598" d="M238 -383v1993h122v-1993h-122z" />
<glyph unicode="}" horiz-adv-x="890" d="M-133 -408l18 95h78q57 0 100.5 13.5t70.5 34t46 54t28.5 65t18.5 76.5l58 293q4 19 9 49t8 46.5t9 41.5t12 40t17 36.5t25 35.5t34 31.5t45 31.5t58 28.5t73 28.5q-36 11 -63.5 23t-47.5 24t-33.5 28.5t-22 29t-11.5 33t-3.5 35t3.5 39t7 40t9.5 45t10.5 47.5l65 334 q9 46 11.5 77t-4 65t-25 54.5t-57 33.5t-95.5 13h-77l18 97h72q140 0 212 -39.5t85 -116.5t-8 -190l-74 -381q-9 -46 -12.5 -76t0 -62.5t18.5 -51t46 -30.5t79 -12h49l-22 -110h-50q-47 0 -83 -14.5t-58.5 -35.5t-39.5 -58t-26 -69t-18 -81l-68 -346q-14 -70 -33 -122 t-51.5 -95.5t-78 -70.5t-110.5 -42t-150 -15h-72z" />
<glyph unicode="~" horiz-adv-x="1124" d="M82 504q14 101 67 172.5t125 71.5q69 0 170.5 -38.5t194.5 -77t141 -38.5h7q22 0 34.5 0.5t34 6.5t35 17.5t27.5 34.5t22 56h102q-14 -103 -67 -174.5t-125 -71.5q-60 0 -175 38.5t-213 77.5t-118 39h-6q-22 0 -34.5 -0.5t-34 -6.5t-35 -17t-28 -34t-22.5 -56h-102z" />
<glyph unicode="&#xa1;" horiz-adv-x="614" d="M88 -379l123 627l151 569h41l-73 -567l-123 -629h-119zM379 1063l31 160h118l-30 -160h-119z" />
<glyph unicode="&#xa2;" d="M186 442q0 133 45 257.5t125.5 223.5t203 160.5t267.5 65.5l37 186h64l-37 -188q78 -4 144.5 -24.5t108.5 -48.5t67.5 -52.5t37.5 -46.5l-92 -70q-11 16 -16.5 23t-31 30.5t-53 37.5t-77.5 27.5t-109 16.5l-184 -942q63 3 121 19t105.5 43t76 47t62.5 49l61 -66 q-111 -92 -207.5 -139t-236.5 -51l-37 -190h-64l37 192q-58 4 -114.5 21t-112 52t-97.5 83.5t-68 121.5t-26 162zM299 469q0 -159 91.5 -258t232.5 -111l184 942q-109 -5 -199 -49.5t-146 -108.5t-94 -142.5t-53.5 -147t-15.5 -125.5z" />
<glyph unicode="&#xa3;" d="M119 143q0 90 57 141.5t164 51.5q47 0 86 -19.5t88 -60.5q65 79 97 145.5t32 137.5h-317l8 41h307q-2 37 -8.5 58t-26.5 50h-252l8 41h218l-93 137q-1 1 -16 23t-17 25.5t-15.5 24t-16.5 27t-13.5 26t-13.5 30t-10 29t-9 32.5t-4.5 32t-2.5 36q0 88 37.5 172t106 152 t175 109.5t232.5 41.5q104 0 183 -27t123.5 -72t66.5 -97.5t22 -110.5q0 -38 -4 -70h-109v27q0 113 -77 180.5t-228 67.5q-84 0 -160.5 -30.5t-129 -78t-83 -107.5t-30.5 -118q0 -28 6 -57t13 -49.5t21 -48t21.5 -40.5t24 -38t20.5 -31q119 -183 123 -197h367l-9 -41h-340 q21 -55 21 -108h299l-8 -41h-293q-7 -61 -38.5 -127.5t-61 -107.5t-72.5 -93q129 -121 284 -121q30 0 55 3t60.5 15.5t63 34t54.5 64t42 100.5h121l2 -24q0 -92 -57.5 -160.5t-148.5 -102.5t-200 -34q-97 0 -175 32.5t-161 110.5q-40 -50 -74.5 -81.5t-66 -43.5t-51 -15 t-49.5 -3q-78 0 -123 50t-45 107zM223 150q0 -32 25.5 -52t70.5 -20q24 0 51.5 17.5t44 33.5t44.5 47q-4 3 -20 16t-27 20.5t-28.5 17.5t-37 15t-39.5 5q-29 0 -56.5 -23t-27.5 -77z" />
<glyph unicode="&#xa4;" horiz-adv-x="1024" d="M115 647l186 184q-84 91 -84 216q0 102 62 180l-162 164l53 51l162 -164q81 63 188 63q124 0 209 -88l186 187l52 -54l-195 -190q43 -70 43 -158q0 -103 -65 -184l213 -213l-54 -51l-211 213q-86 -60 -186 -60q-82 0 -154 43l-192 -192zM287 1047q0 -95 65 -164.5 t160 -69.5t164 65t69 160t-65 164.5t-160 69.5t-164 -65t-69 -160z" />
<glyph unicode="&#xa5;" d="M96 322l13 55h415l33 178h-414l11 57h415l31 154l-281 840h117l242 -762l559 762h100l-622 -838l-31 -156h446l-10 -57h-446l-35 -178h446l-12 -55h-444l-64 -322h-114l61 322h-416z" />
<glyph unicode="&#xa6;" horiz-adv-x="598" d="M238 -385v797h122v-797h-122zM238 813v797h122v-797h-122z" />
<glyph unicode="&#xa7;" horiz-adv-x="1409" d="M131 -227l45 84q55 -30 142.5 -53t160.5 -23q97 0 182.5 27.5t141 84t55.5 130.5q0 39 -18.5 71t-52 56t-61 38t-64.5 29l-265 105q-56 22 -94.5 43.5t-75 55.5t-55 83t-18.5 114q0 75 30.5 142t77.5 114t110 86.5t120 63t116 39.5q-74 41 -119 100.5t-45 132.5 q0 152 137 245t365 93q96 0 192 -22.5t142 -46.5l-45 -84q-54 30 -142 52.5t-161 22.5q-97 0 -182 -27.5t-141 -83.5t-56 -130q0 -39 18.5 -71.5t52 -56.5t61.5 -38t65 -29l264 -104q56 -22 94.5 -43.5t75 -55.5t55 -83.5t18.5 -114.5q0 -75 -30.5 -142t-77.5 -114 t-110 -86.5t-120 -63t-116 -39.5q74 -41 119 -100.5t45 -132.5q0 -152 -137 -245t-365 -93q-96 0 -191.5 23t-142.5 47zM256 633q0 -68 49 -123t164 -100l221 -86q465 121 465 381q0 68 -49 123t-164 100l-221 86q-465 -121 -465 -381z" />
<glyph unicode="&#xa8;" horiz-adv-x="1277" d="M385 1112l23 125h114l-22 -125h-115zM756 1112l22 125h115l-23 -125h-114z" />
<glyph unicode="&#xa9;" horiz-adv-x="1236" d="M76 1079q0 147 72.5 272t197.5 198t272 73t272 -73t198 -198t73 -272t-73 -272t-198 -197.5t-272 -72.5q-110 0 -210.5 43t-173 115.5t-115.5 173t-43 210.5zM176 1079q0 -185 129 -316.5t313 -131.5t315.5 131.5t131.5 316.5t-131.5 317t-315.5 132t-313 -132t-129 -317 zM324 1075q0 145 84.5 238.5t216.5 93.5q68 0 121 -20t104 -72l-62 -74q-67 70 -167 70q-89 0 -145 -65t-56 -171q0 -101 60.5 -172.5t154.5 -71.5t166 103l73 -57q-76 -140 -247 -140q-140 0 -221.5 93t-81.5 245z" />
<glyph unicode="&#xaa;" horiz-adv-x="663" d="M150 1157q0 35 15.5 71t48 71t92.5 57t138 22q90 0 152 -10l10 55q0 3 3 15t3 18q0 53 -40.5 73.5t-118.5 20.5q-97 0 -181 -43l-18 60q110 47 227 47q93 0 149 -37.5t56 -101.5q0 -4 -1 -9t-2.5 -11t-2.5 -9l-82 -426h-66l9 53q-102 -67 -224 -67q-29 0 -56 6.5 t-53.5 22.5t-42 47t-15.5 75zM221 1165q0 -52 30 -75t93 -23q96 0 207 76l33 164q-50 10 -164 10q-86 0 -142.5 -45t-56.5 -107z" />
<glyph unicode="&#xab;" horiz-adv-x="921" d="M43 432l23 119l370 289l-26 -133l-273 -230l187 -211l-23 -123zM485 432l23 119l371 289l-27 -133l-272 -230l186 -211l-23 -123z" />
<glyph unicode="&#xac;" horiz-adv-x="1124" d="M164 780v115h794v-498h-118v383h-676z" />
<glyph unicode="&#xad;" horiz-adv-x="641" d="M94 463l17 82h436l-17 -82h-436z" />
<glyph unicode="&#xae;" horiz-adv-x="1236" d="M76 1079q0 147 72.5 272t197.5 198t272 73t272 -73t198 -198t73 -272t-73 -272t-198 -197.5t-272 -72.5q-110 0 -210.5 43t-173 115.5t-115.5 173t-43 210.5zM176 1079q0 -185 129 -316.5t313 -131.5t315.5 131.5t131.5 316.5t-131.5 317t-315.5 132t-313 -132t-129 -317 zM428 780v613h213q83 0 136.5 -44t53.5 -130q0 -75 -48 -128t-132 -53l215 -258h-125l-221 283v-283h-92zM520 1100l82 -4q43 -2 71.5 9.5t40.5 34.5t15.5 41.5t3.5 43.5q0 21 -3 33t-14.5 28t-41 23.5t-76.5 7.5l-78 -4v-213z" />
<glyph unicode="&#xaf;" horiz-adv-x="1024" d="M270 1284l31 160h455l-31 -160h-455z" />
<glyph unicode="&#xb0;" horiz-adv-x="634" d="M70 1188q0 97 72.5 166t176.5 69q108 0 177 -66t69 -169q0 -101 -71.5 -168.5t-180.5 -67.5q-116 0 -179.5 65.5t-63.5 170.5zM170 1188q0 -68 41 -109t106 -41t105.5 42.5t40.5 107.5q0 63 -41 105t-105 42t-105.5 -42.5t-41.5 -104.5z" />
<glyph unicode="&#xb1;" horiz-adv-x="1124" d="M162 0v113h801v-113h-801zM164 539v112h338v340h112v-340h342v-112h-342v-340h-112v340h-338z" />
<glyph unicode="&#xb2;" horiz-adv-x="1024" d="M184 958l449 342q10 8 21.5 20t32 36t33.5 55.5t13 61.5q0 114 -121 114q-70 0 -117.5 -36.5t-56.5 -90.5l-4 -24h-92l2 16q12 94 96.5 150.5t200.5 56.5q90 0 145.5 -36.5t55.5 -117.5q0 -137 -176 -263q-5 -3 -7 -5l-278 -201h371l-21 -78h-547z" />
<glyph unicode="&#xb3;" horiz-adv-x="1024" d="M217 999l57 62q80 -51 193 -51q76 0 132 45t56 114q0 42 -34.5 67.5t-104.5 25.5h-70l19 69h82q69 0 119.5 48.5t50.5 111.5q0 30 -11.5 48.5t-33 26t-38 9.5t-42.5 2q-33 0 -79.5 -22t-80.5 -60l-49 49q103 103 258 103q87 0 126.5 -36.5t39.5 -92.5q0 -67 -49 -128 t-129 -90q53 -6 86 -40t33 -72q0 -103 -89.5 -174.5t-222.5 -71.5q-131 0 -219 57z" />
<glyph unicode="&#xb4;" horiz-adv-x="1277" d="M498 1112l178 260h104l-178 -260h-104z" />
<glyph unicode="&#xb5;" horiz-adv-x="1107" d="M53 825v45h25q24 0 60 -2t59 -2q21 0 51 2t51 2h27v-585q0 -94 42.5 -138.5t141.5 -44.5q111 0 203 58v493q0 111 -18.5 141.5t-88.5 30.5h-18v45h28q22 0 57 -2t58 -2q21 0 52 2t51 2h28v-591q0 -119 19.5 -160t66.5 -41q15 0 27.5 2.5t19 4t16.5 10.5t12.5 11t14 16.5 t13.5 16.5h36q-44 -182 -225 -182q-36 0 -63 13.5t-43.5 38.5t-25.5 48t-17 56q-25 -25 -61.5 -51.5t-104.5 -54t-133 -27.5q-117 0 -172 61v-57q0 -59 28.5 -152t28.5 -123q0 -64 -25.5 -94.5t-64.5 -30.5q-82 0 -82 125q0 31 24.5 123.5t24.5 151.5v669q0 111 -19 141.5 t-89 30.5h-15z" />
<glyph unicode="&#xb6;" horiz-adv-x="1560" d="M16 799q0 170 68 321.5t183 258t269.5 168t323.5 61.5h602v-127h-602v-1358h600v-127h-614q-167 0 -319.5 61.5t-265 166.5t-179 255.5t-66.5 319.5zM1122 307v981h131v-981h-131z" />
<glyph unicode="&#xb7;" horiz-adv-x="1024" d="M319 649l213 244l207 -252l-207 -244z" />
<glyph unicode="&#xb8;" horiz-adv-x="1024" d="M98 -395l86 96q34 -17 61.5 -23t73.5 -6q31 0 49 1.5t45.5 9t43.5 27t22 50.5v13q0 49 -94 49q-40 0 -104 -21l-33 47l155 234l121 -47l-90 -125q42 6 66 6q131 0 131 -111q0 -23 -6 -47q-14 -71 -63.5 -116.5t-116 -63.5t-152.5 -18q-110 0 -195 45z" />
<glyph unicode="&#xb9;" horiz-adv-x="1024" d="M340 1413l20 80q153 8 256 127h68l-180 -664h-92l147 549q-48 -40 -94.5 -61.5t-69.5 -25.5t-55 -5z" />
<glyph unicode="&#xba;" horiz-adv-x="729" d="M133 1233q0 63 23 128t66 122.5t115 94t159 36.5q122 0 184.5 -66.5t62.5 -171.5q0 -73 -22.5 -136.5t-59.5 -107.5t-84.5 -76t-98 -47.5t-99.5 -15.5q-105 0 -175.5 62t-70.5 178zM211 1245q0 -84 48 -132t132 -48q111 0 192 89t81 216q0 85 -51.5 130.5t-129.5 45.5 q-117 0 -194.5 -87.5t-77.5 -213.5z" />
<glyph unicode="&#xbb;" horiz-adv-x="921" d="M43 139l27 133l272 230l-186 211l22 123l258 -289l-22 -119zM485 139l27 133l272 230l-186 211l23 123l258 -289l-23 -119z" />
<glyph unicode="&#xbc;" d="M205 780l14 60h1010l-15 -60h-1009zM281 139l14 68l496 477h55l-117 -471h123l-21 -76h-122l-33 -137h-82l35 139h-348zM369 211h276l88 350zM596 1413l20 80q153 8 256 127h68l-180 -664h-92l147 549q-48 -40 -94.5 -61.5t-69.5 -25.5t-55 -5z" />
<glyph unicode="&#xbd;" d="M205 780l14 60h1010l-15 -60h-1009zM246 0l448 342q101 84 101 172q0 60 -33 87.5t-88 27.5q-70 0 -117.5 -36.5t-56.5 -90.5l-4 -25h-93l3 17q12 94 96 150t200 56q90 0 145.5 -36t55.5 -117q0 -137 -175 -263q-5 -4 -7 -5l-279 -201h371l-20 -78h-547zM596 1413l20 80 q153 8 256 127h68l-180 -664h-92l147 549q-48 -40 -94.5 -61.5t-69.5 -25.5t-55 -5z" />
<glyph unicode="&#xbe;" d="M205 780l14 60h1010l-15 -60h-1009zM281 139l14 68l496 477h55l-117 -471h123l-21 -76h-122l-33 -137h-82l35 139h-348zM369 211h276l88 350zM444 999l58 62q80 -51 192 -51q76 0 132.5 45t56.5 114q0 42 -35 67.5t-105 25.5h-69l18 69h82q69 0 119.5 48.5t50.5 111.5 q0 30 -11.5 48.5t-33 26t-38 9.5t-42.5 2q-33 0 -79.5 -22t-80.5 -60l-49 49q103 103 258 103q87 0 126.5 -36.5t39.5 -92.5q0 -67 -49 -128t-129 -90q53 -6 86 -40t33 -72q0 -103 -89 -174.5t-222 -71.5q-132 0 -220 57z" />
<glyph unicode="&#xbf;" horiz-adv-x="1069" d="M174 -141q0 58 26 127t63.5 126.5t75 106.5t63.5 77l26 28q52 60 80 96.5t69 100t68 135.5t43 157h117q-23 -118 -58 -203.5t-92 -165.5q-27 -37 -96.5 -119t-120.5 -144.5t-94 -146.5t-43 -151q0 -46 18.5 -79.5t50.5 -51.5t69.5 -26.5t80.5 -8.5q30 0 62.5 7t72.5 24.5 t78 54t64 88.5l100 -30q-42 -101 -154 -173.5t-264 -72.5q-39 0 -77 6t-80.5 23t-74 43t-52.5 70.5t-21 101.5zM729 1065l33 160h119l-33 -160h-119z" />
<glyph unicode="&#xc0;" horiz-adv-x="1378" d="M-59 0l919 1669l273 -1669h-117l-86 547h-568l-296 -547h-125zM418 645h493l-112 711zM662 1987h104l178 -261h-104z" />
<glyph unicode="&#xc1;" horiz-adv-x="1378" d="M-59 0l919 1669l273 -1669h-117l-86 547h-568l-296 -547h-125zM418 645h493l-112 711zM825 1726l179 261h104l-178 -261h-105z" />
<glyph unicode="&#xc2;" horiz-adv-x="1378" d="M-59 0l919 1669l273 -1669h-117l-86 547h-568l-296 -547h-125zM418 645h493l-112 711zM651 1726l219 265h105l121 -265h-88l-95 213l-174 -213h-88z" />
<glyph unicode="&#xc3;" horiz-adv-x="1378" d="M-59 0l919 1669l273 -1669h-117l-86 547h-568l-296 -547h-125zM418 645h493l-112 711zM608 1706q9 64 50.5 105.5t97.5 41.5q47 0 128.5 -27.5t123.5 -27.5q31 0 55 18.5t27 55.5h73q-9 -73 -58 -109.5t-97 -36.5q-45 0 -126 27t-122 27q-69 0 -82 -74h-70z" />
<glyph unicode="&#xc4;" horiz-adv-x="1378" d="M-59 0l919 1669l273 -1669h-117l-86 547h-568l-296 -547h-125zM418 645h493l-112 711zM631 1726l22 125h115l-23 -125h-114zM1001 1726l23 125h115l-23 -125h-115z" />
<glyph unicode="&#xc5;" horiz-adv-x="1378" d="M-59 0l911 1655h-2q-100 0 -164.5 61.5t-64.5 155.5q0 127 104.5 227.5t232.5 100.5q99 0 162.5 -62.5t63.5 -157.5q0 -127 -97.5 -223t-224.5 -102l271 -1655h-117l-86 547h-568l-296 -547h-125zM418 645h493l-112 711zM707 1892q0 -76 42.5 -118.5t114.5 -42.5 q86 0 157 69t71 162q0 72 -44.5 117t-113.5 45q-86 0 -156.5 -72.5t-70.5 -159.5z" />
<glyph unicode="&#xc6;" horiz-adv-x="2080" d="M-180 0l1345 1606h873l-19 -97h-682l-123 -632h656l-19 -99h-655l-131 -678h733l-18 -100h-852l104 543h-618l-451 -543h-143zM492 641h559l172 875z" />
<glyph unicode="&#xc7;" horiz-adv-x="1560" d="M68 623q0 201 77.5 385t208 317.5t309.5 213t373 79.5q143 0 269 -40.5t208 -123.5l-88 -76q-79 67 -175 99t-232 32q-142 0 -273 -50.5t-229.5 -137t-172.5 -197.5t-112 -236t-38 -249q0 -249 147.5 -403t411.5 -154q275 0 538 205l58 -82q-126 -116 -282.5 -169.5 t-303.5 -58.5l-68 -116q52 12 97 12q88 0 140 -41t52 -106q0 -67 -43.5 -121t-103.5 -79.5t-119 -25.5q-173 0 -279 90l62 72q37 -35 93 -56.5t120 -21.5q59 0 109 37t50 82q0 43 -39 65.5t-92 22.5q-92 0 -125 -22l-53 63l84 150q-269 22 -424 188.5t-155 452.5z" />
<glyph unicode="&#xc8;" horiz-adv-x="1277" d="M125 0l311 1606h799l-18 -101h-682l-123 -626h655l-18 -103h-656l-131 -672h735l-20 -104h-852zM600 1987h105l178 -261h-105z" />
<glyph unicode="&#xc9;" horiz-adv-x="1277" d="M125 0l311 1606h799l-18 -101h-682l-123 -626h655l-18 -103h-656l-131 -672h735l-20 -104h-852zM723 1726l178 261h105l-179 -261h-104z" />
<glyph unicode="&#xca;" horiz-adv-x="1277" d="M125 0l311 1606h799l-18 -101h-682l-123 -626h655l-18 -103h-656l-131 -672h735l-20 -104h-852zM600 1726l219 265h105l120 -265h-88l-94 213l-174 -213h-88z" />
<glyph unicode="&#xcb;" horiz-adv-x="1277" d="M125 0l311 1606h799l-18 -101h-682l-123 -626h655l-18 -103h-656l-131 -672h735l-20 -104h-852zM600 1726l23 125h114l-22 -125h-115zM971 1726l22 125h115l-23 -125h-114z" />
<glyph unicode="&#xcc;" horiz-adv-x="671" d="M123 0l311 1606h115l-311 -1606h-115zM293 1987h104l178 -261h-104z" />
<glyph unicode="&#xcd;" horiz-adv-x="671" d="M123 0l311 1606h115l-311 -1606h-115zM436 1726l178 261h105l-178 -261h-105z" />
<glyph unicode="&#xce;" horiz-adv-x="671" d="M123 0l311 1606h115l-311 -1606h-115zM279 1726l219 265h104l121 -265h-88l-94 213l-174 -213h-88z" />
<glyph unicode="&#xcf;" horiz-adv-x="671" d="M123 0l311 1606h115l-311 -1606h-115zM262 1726l23 125h114l-22 -125h-115zM633 1726l22 125h115l-22 -125h-115z" />
<glyph unicode="&#xd0;" horiz-adv-x="1665" d="M-12 778l18 78h283l147 754h406q159 0 288 -37.5t226 -112.5t150 -196t53 -279q0 -188 -55 -349t-150.5 -275.5t-223.5 -196t-275 -121t-304 -39.5h-426l149 774h-286zM262 104h283q190 0 356 66.5t282.5 181.5t183.5 276t67 345q0 88 -18 163t-64 144.5t-117.5 118 t-185.5 77.5t-261 29h-253l-127 -649h288l-18 -78h-285z" />
<glyph unicode="&#xd1;" horiz-adv-x="1771" d="M121 0l323 1669l830 -1395l264 1360h115l-328 -1685l-827 1394l-262 -1343h-115zM762 1706q9 64 50.5 105.5t96.5 41.5q47 0 128.5 -27.5t123.5 -27.5q31 0 55 18.5t27 55.5h74q-6 -51 -35.5 -85.5t-60.5 -47.5t-60 -13q-45 0 -126 27t-122 27q-69 0 -82 -74h-69z" />
<glyph unicode="&#xd2;" horiz-adv-x="1812" d="M82 621q0 108 30.5 222.5t87 225t143.5 209.5t193.5 173.5t243.5 118.5t287 44q134 0 244.5 -32.5t188 -90t130.5 -137.5t78 -174.5t25 -200.5q0 -148 -43.5 -294t-129 -274t-202.5 -226t-276 -155t-337 -57q-159 0 -286.5 51t-209 140t-124.5 205.5t-43 251.5zM211 639 q0 -252 156 -403.5t399 -151.5q167 0 321.5 70t268 188.5t182 284t68.5 346.5q0 253 -152 396.5t-407 143.5q-166 0 -322 -75.5t-267.5 -197t-179 -280.5t-67.5 -321zM907 1987h105l178 -261h-105z" />
<glyph unicode="&#xd3;" horiz-adv-x="1812" d="M82 621q0 108 30.5 222.5t87 225t143.5 209.5t193.5 173.5t243.5 118.5t287 44q134 0 244.5 -32.5t188 -90t130.5 -137.5t78 -174.5t25 -200.5q0 -148 -43.5 -294t-129 -274t-202.5 -226t-276 -155t-337 -57q-159 0 -286.5 51t-209 140t-124.5 205.5t-43 251.5zM211 639 q0 -252 156 -403.5t399 -151.5q167 0 321.5 70t268 188.5t182 284t68.5 346.5q0 253 -152 396.5t-407 143.5q-166 0 -322 -75.5t-267.5 -197t-179 -280.5t-67.5 -321zM1051 1726l178 261h104l-178 -261h-104z" />
<glyph unicode="&#xd4;" horiz-adv-x="1812" d="M82 621q0 108 30.5 222.5t87 225t143.5 209.5t193.5 173.5t243.5 118.5t287 44q134 0 244.5 -32.5t188 -90t130.5 -137.5t78 -174.5t25 -200.5q0 -148 -43.5 -294t-129 -274t-202.5 -226t-276 -155t-337 -57q-159 0 -286.5 51t-209 140t-124.5 205.5t-43 251.5zM211 639 q0 -252 156 -403.5t399 -151.5q167 0 321.5 70t268 188.5t182 284t68.5 346.5q0 253 -152 396.5t-407 143.5q-166 0 -322 -75.5t-267.5 -197t-179 -280.5t-67.5 -321zM887 1726l219 265h104l121 -265h-88l-94 213l-174 -213h-88z" />
<glyph unicode="&#xd5;" horiz-adv-x="1812" d="M82 621q0 108 30.5 222.5t87 225t143.5 209.5t193.5 173.5t243.5 118.5t287 44q134 0 244.5 -32.5t188 -90t130.5 -137.5t78 -174.5t25 -200.5q0 -148 -43.5 -294t-129 -274t-202.5 -226t-276 -155t-337 -57q-159 0 -286.5 51t-209 140t-124.5 205.5t-43 251.5zM211 639 q0 -252 156 -403.5t399 -151.5q167 0 321.5 70t268 188.5t182 284t68.5 346.5q0 253 -152 396.5t-407 143.5q-166 0 -322 -75.5t-267.5 -197t-179 -280.5t-67.5 -321zM834 1706q9 64 50.5 105.5t96.5 41.5q47 0 128.5 -27.5t123.5 -27.5q31 0 55 18.5t27 55.5h74 q-6 -51 -35.5 -85.5t-60.5 -47.5t-60 -13q-45 0 -126 27t-122 27q-69 0 -82 -74h-69z" />
<glyph unicode="&#xd6;" horiz-adv-x="1812" d="M82 621q0 108 30.5 222.5t87 225t143.5 209.5t193.5 173.5t243.5 118.5t287 44q134 0 244.5 -32.5t188 -90t130.5 -137.5t78 -174.5t25 -200.5q0 -148 -43.5 -294t-129 -274t-202.5 -226t-276 -155t-337 -57q-159 0 -286.5 51t-209 140t-124.5 205.5t-43 251.5zM211 639 q0 -252 156 -403.5t399 -151.5q167 0 321.5 70t268 188.5t182 284t68.5 346.5q0 253 -152 396.5t-407 143.5q-166 0 -322 -75.5t-267.5 -197t-179 -280.5t-67.5 -321zM856 1726l23 125h114l-22 -125h-115zM1227 1726l22 125h115l-23 -125h-114z" />
<glyph unicode="&#xd7;" horiz-adv-x="1124" d="M145 221l336 369l-336 368l84 93l336 -369l346 385l84 -92l-346 -385l346 -385l-84 -92l-346 385l-336 -369z" />
<glyph unicode="&#xd8;" horiz-adv-x="1812" d="M82 621q0 108 30.5 222.5t87 225t143.5 209.5t193.5 173.5t243.5 118.5t287 44q265 0 432 -123l164 186l63 -41l-170 -194q177 -174 177 -463q0 -148 -43.5 -294t-129 -274t-202.5 -226t-276 -155t-337 -57q-217 0 -383 99l-167 -195l-66 45l170 195q-106 88 -161.5 219 t-55.5 285zM211 639q0 -133 46 -241t130 -181l1032 1182q-141 114 -372 114q-166 0 -322 -75.5t-267.5 -197t-179 -280.5t-67.5 -321zM449 170q138 -86 317 -86q167 0 321.5 70t268 188.5t182 284t68.5 346.5q0 232 -131 375z" />
<glyph unicode="&#xd9;" horiz-adv-x="1757" d="M201 498q0 75 16 166l184 944h115l-176 -901q-21 -108 -21 -193q0 -214 111.5 -319t302.5 -105q235 0 398.5 163.5t222.5 469.5l172 885h114l-188 -965q-24 -126 -84 -241t-151 -210t-222.5 -151.5t-283.5 -56.5q-128 0 -227.5 40t-160 110.5t-91.5 162.5t-31 201z M805 1987h104l178 -261h-104z" />
<glyph unicode="&#xda;" horiz-adv-x="1757" d="M201 498q0 75 16 166l184 944h115l-176 -901q-21 -108 -21 -193q0 -214 111.5 -319t302.5 -105q235 0 398.5 163.5t222.5 469.5l172 885h114l-188 -965q-24 -126 -84 -241t-151 -210t-222.5 -151.5t-283.5 -56.5q-128 0 -227.5 40t-160 110.5t-91.5 162.5t-31 201z M907 1726l178 261h105l-178 -261h-105z" />
<glyph unicode="&#xdb;" horiz-adv-x="1757" d="M201 498q0 75 16 166l184 944h115l-176 -901q-21 -108 -21 -193q0 -214 111.5 -319t302.5 -105q235 0 398.5 163.5t222.5 469.5l172 885h114l-188 -965q-24 -126 -84 -241t-151 -210t-222.5 -151.5t-283.5 -56.5q-128 0 -227.5 40t-160 110.5t-91.5 162.5t-31 201z M784 1726l220 265h104l121 -265h-88l-94 213l-175 -213h-88z" />
<glyph unicode="&#xdc;" horiz-adv-x="1757" d="M201 498q0 75 16 166l184 944h115l-176 -901q-21 -108 -21 -193q0 -214 111.5 -319t302.5 -105q235 0 398.5 163.5t222.5 469.5l172 885h114l-188 -965q-24 -126 -84 -241t-151 -210t-222.5 -151.5t-283.5 -56.5q-128 0 -227.5 40t-160 110.5t-91.5 162.5t-31 201z M754 1726l22 125h115l-23 -125h-114zM1124 1726l23 125h115l-23 -125h-115z" />
<glyph unicode="&#xdd;" horiz-adv-x="1191" d="M158 1604h125l317 -732l588 734h135l-688 -854l-148 -752h-114l147 750zM723 1726l178 261h105l-179 -261h-104z" />
<glyph unicode="&#xde;" horiz-adv-x="1331" d="M119 0l311 1606h119l-57 -287h284q207 -8 321.5 -98t114.5 -265q0 -78 -24 -153t-75.5 -144t-125.5 -121t-182 -83t-236 -31h-250l-86 -424h-114zM338 526h242q235 0 370 115t135 307q0 41 -8 76.5t-30.5 72.5t-58 63t-96 42.5t-138.5 16.5h-281z" />
<glyph unicode="&#xdf;" horiz-adv-x="1191" d="M127 0l235 1212q18 92 54 163.5t80.5 115.5t100.5 72.5t109.5 39.5t110.5 11q125 0 208 -66t83 -178q0 -40 -8 -83.5t-32.5 -96.5t-62 -96t-102.5 -77.5t-149 -45.5l-2 -8q142 -39 223.5 -157.5t81.5 -268.5q0 -104 -32.5 -202t-94 -179.5t-162 -131t-225.5 -49.5 q-75 0 -187 41l17 84q79 -37 188 -37q117 0 207.5 68t137 176t46.5 234q0 71 -21.5 130t-56.5 100t-87 75t-104 55t-116 39l19 94h71q61 0 121 21t110 59.5t81.5 101.5t31.5 140q0 33 -9 61t-30.5 53.5t-63 40.5t-99.5 15q-41 0 -76.5 -7t-77.5 -29t-75 -58.5t-62.5 -102 t-46.5 -153.5l-228 -1176h-106z" />
<glyph unicode="&#xe0;" horiz-adv-x="1126" d="M104 223q0 45 15.5 92.5t52 97t90.5 88t139 63t189 24.5q40 0 130.5 -6.5t127.5 -14.5l18 101q1 7 4 18.5t5 20.5t2 16q0 92 -70 129t-203 37q-146 0 -299 -78l-26 92q175 76 372 76q150 0 240 -60t90 -165q0 -25 -6 -49l-133 -705h-103l21 100q-173 -118 -383 -118 q-37 0 -71.5 6t-72 22.5t-65.5 42.5t-46 69.5t-18 100.5zM207 240q0 -91 53 -131.5t162 -40.5q83 0 178.5 36.5t171.5 90.5l55 284q-20 7 -110 14t-170 7q-145 0 -242.5 -78t-97.5 -182zM498 1372h104l178 -260h-104z" />
<glyph unicode="&#xe1;" horiz-adv-x="1126" d="M104 223q0 45 15.5 92.5t52 97t90.5 88t139 63t189 24.5q40 0 130.5 -6.5t127.5 -14.5l18 101q1 7 4 18.5t5 20.5t2 16q0 92 -70 129t-203 37q-146 0 -299 -78l-26 92q175 76 372 76q150 0 240 -60t90 -165q0 -25 -6 -49l-133 -705h-103l21 100q-173 -118 -383 -118 q-37 0 -71.5 6t-72 22.5t-65.5 42.5t-46 69.5t-18 100.5zM207 240q0 -91 53 -131.5t162 -40.5q83 0 178.5 36.5t171.5 90.5l55 284q-20 7 -110 14t-170 7q-145 0 -242.5 -78t-97.5 -182zM621 1112l178 260h104l-178 -260h-104z" />
<glyph unicode="&#xe2;" horiz-adv-x="1126" d="M104 223q0 45 15.5 92.5t52 97t90.5 88t139 63t189 24.5q40 0 130.5 -6.5t127.5 -14.5l18 101q1 7 4 18.5t5 20.5t2 16q0 92 -70 129t-203 37q-146 0 -299 -78l-26 92q175 76 372 76q150 0 240 -60t90 -165q0 -25 -6 -49l-133 -705h-103l21 100q-173 -118 -383 -118 q-37 0 -71.5 6t-72 22.5t-65.5 42.5t-46 69.5t-18 100.5zM207 240q0 -91 53 -131.5t162 -40.5q83 0 178.5 36.5t171.5 90.5l55 284q-20 7 -110 14t-170 7q-145 0 -242.5 -78t-97.5 -182zM457 1112l219 264h104l121 -264h-88l-94 213l-174 -213h-88z" />
<glyph unicode="&#xe3;" horiz-adv-x="1126" d="M104 223q0 45 15.5 92.5t52 97t90.5 88t139 63t189 24.5q40 0 130.5 -6.5t127.5 -14.5l18 101q1 7 4 18.5t5 20.5t2 16q0 92 -70 129t-203 37q-146 0 -299 -78l-26 92q175 76 372 76q150 0 240 -60t90 -165q0 -25 -6 -49l-133 -705h-103l21 100q-173 -118 -383 -118 q-37 0 -71.5 6t-72 22.5t-65.5 42.5t-46 69.5t-18 100.5zM207 240q0 -91 53 -131.5t162 -40.5q83 0 178.5 36.5t171.5 90.5l55 284q-20 7 -110 14t-170 7q-145 0 -242.5 -78t-97.5 -182zM424 1092q9 64 50.5 105.5t96.5 41.5q47 0 128.5 -27.5t123.5 -27.5q31 0 55 18t27 55 h74q-6 -51 -35.5 -85.5t-60.5 -47t-60 -12.5q-45 0 -126 26.5t-122 26.5q-68 0 -81 -73h-70z" />
<glyph unicode="&#xe4;" horiz-adv-x="1126" d="M104 223q0 45 15.5 92.5t52 97t90.5 88t139 63t189 24.5q40 0 130.5 -6.5t127.5 -14.5l18 101q1 7 4 18.5t5 20.5t2 16q0 92 -70 129t-203 37q-146 0 -299 -78l-26 92q175 76 372 76q150 0 240 -60t90 -165q0 -25 -6 -49l-133 -705h-103l21 100q-173 -118 -383 -118 q-37 0 -71.5 6t-72 22.5t-65.5 42.5t-46 69.5t-18 100.5zM207 240q0 -91 53 -131.5t162 -40.5q83 0 178.5 36.5t171.5 90.5l55 284q-20 7 -110 14t-170 7q-145 0 -242.5 -78t-97.5 -182zM426 1112l23 125h114l-22 -125h-115zM797 1112l22 125h115l-23 -125h-114z" />
<glyph unicode="&#xe5;" horiz-adv-x="1126" d="M104 223q0 45 15.5 92.5t52 97t90.5 88t139 63t189 24.5q40 0 130.5 -6.5t127.5 -14.5l18 101q1 7 4 18.5t5 20.5t2 16q0 92 -70 129t-203 37q-146 0 -299 -78l-26 92q175 76 372 76q150 0 240 -60t90 -165q0 -25 -6 -49l-133 -705h-103l21 100q-173 -118 -383 -118 q-37 0 -71.5 6t-72 22.5t-65.5 42.5t-46 69.5t-18 100.5zM207 240q0 -91 53 -131.5t162 -40.5q83 0 178.5 36.5t171.5 90.5l55 284q-20 7 -110 14t-170 7q-145 0 -242.5 -78t-97.5 -182zM477 1257q0 127 105 227.5t233 100.5q99 0 162 -62t63 -157q0 -130 -102 -228 t-231 -98q-100 0 -165 61.5t-65 155.5zM563 1278q0 -76 43.5 -119t114.5 -43q86 0 156.5 69.5t70.5 162.5q0 72 -44 116.5t-113 44.5q-86 0 -157 -72t-71 -159z" />
<glyph unicode="&#xe6;" horiz-adv-x="1835" d="M98 195q0 72 31 138t92.5 120.5t165.5 87t238 32.5h225l20 97q7 32 7 49q0 40 -13.5 70.5t-38.5 48t-48.5 28.5t-54 15t-44.5 5t-31 1q-68 0 -129 -12t-96 -25.5t-96 -40.5l-23 92q83 35 181 55.5t182 20.5q66 0 115.5 -7.5t97.5 -27.5t76 -62.5t32 -105.5q62 97 177 149 t239 52q157 0 253.5 -86t96.5 -264q0 -72 -14 -146h-205h-584q-18 -65 -18 -121q0 -133 85.5 -208.5t215.5 -75.5q118 0 203.5 40t169.5 115l51 -86q-117 -88 -216.5 -128t-226.5 -40q-126 0 -227 59t-147 150q-38 -34 -61 -53.5t-70.5 -52.5t-89.5 -51t-103 -32.5 t-125 -14.5q-142 0 -217.5 58.5t-75.5 156.5zM213 215q0 -71 49 -110t141 -39q100 0 206.5 49.5t187.5 154.5l39 215h-207q-119 0 -209.5 -26t-148.5 -88t-58 -156zM975 575h667q5 50 5 62q0 111 -73 179.5t-185 68.5q-49 0 -106 -17.5t-117 -52t-112 -97t-79 -143.5z" />
<glyph unicode="&#xe7;" horiz-adv-x="1056" d="M88 369q0 118 41.5 228t115.5 196t185.5 138t241.5 52q99 0 185 -42t128 -120l-82 -67q-80 135 -274 135q-123 0 -223 -75t-152.5 -191.5t-52.5 -245.5q0 -142 79.5 -221.5t208.5 -79.5q93 0 183.5 37.5t161.5 101.5l45 -88q-88 -79 -175.5 -110.5t-193.5 -34.5l-86 -117 q48 10 84 10q71 0 112.5 -35.5t41.5 -89.5q0 -83 -59.5 -127.5t-145.5 -46.5q-59 0 -112.5 18.5t-135.5 61.5l51 61q42 -27 96.5 -44t100.5 -17q45 0 77.5 21t32.5 59q0 61 -108 61q-69 0 -107 -20l-35 65l101 144q-152 17 -241 119t-89 264z" />
<glyph unicode="&#xe8;" horiz-adv-x="1095" d="M84 383q0 176 81 314.5t212.5 212t286.5 73.5q157 0 253.5 -86t96.5 -264q0 -65 -15 -144h-792q-8 -47 -8 -94q0 -85 26.5 -149t70.5 -99.5t95 -53t107 -17.5q203 0 372 162l52 -86q-115 -88 -215 -128t-228 -40q-169 0 -282 108t-113 291zM231 586h672q4 36 4 51 q0 113 -70.5 183.5t-187.5 70.5q-59 0 -118.5 -17.5t-117.5 -52.5t-106.5 -95.5t-75.5 -139.5zM498 1372h104l178 -260h-104z" />
<glyph unicode="&#xe9;" horiz-adv-x="1095" d="M84 383q0 176 81 314.5t212.5 212t286.5 73.5q157 0 253.5 -86t96.5 -264q0 -65 -15 -144h-792q-8 -47 -8 -94q0 -85 26.5 -149t70.5 -99.5t95 -53t107 -17.5q203 0 372 162l52 -86q-115 -88 -215 -128t-228 -40q-169 0 -282 108t-113 291zM231 586h672q4 36 4 51 q0 113 -70.5 183.5t-187.5 70.5q-59 0 -118.5 -17.5t-117.5 -52.5t-106.5 -95.5t-75.5 -139.5zM621 1112l178 260h104l-178 -260h-104z" />
<glyph unicode="&#xea;" horiz-adv-x="1095" d="M84 383q0 176 81 314.5t212.5 212t286.5 73.5q157 0 253.5 -86t96.5 -264q0 -65 -15 -144h-792q-8 -47 -8 -94q0 -85 26.5 -149t70.5 -99.5t95 -53t107 -17.5q203 0 372 162l52 -86q-115 -88 -215 -128t-228 -40q-169 0 -282 108t-113 291zM231 586h672q4 36 4 51 q0 113 -70.5 183.5t-187.5 70.5q-59 0 -118.5 -17.5t-117.5 -52.5t-106.5 -95.5t-75.5 -139.5zM436 1112l219 264h105l121 -264h-88l-95 213l-174 -213h-88z" />
<glyph unicode="&#xeb;" horiz-adv-x="1095" d="M84 383q0 176 81 314.5t212.5 212t286.5 73.5q157 0 253.5 -86t96.5 -264q0 -65 -15 -144h-792q-8 -47 -8 -94q0 -85 26.5 -149t70.5 -99.5t95 -53t107 -17.5q203 0 372 162l52 -86q-115 -88 -215 -128t-228 -40q-169 0 -282 108t-113 291zM231 586h672q4 36 4 51 q0 113 -70.5 183.5t-187.5 70.5q-59 0 -118.5 -17.5t-117.5 -52.5t-106.5 -95.5t-75.5 -139.5zM406 1112l22 125h115l-23 -125h-114zM776 1112l23 125h114l-22 -125h-115z" />
<glyph unicode="&#xec;" horiz-adv-x="561" d="M133 0l186 958h103l-186 -958h-103zM190 1372h105l178 -260h-104z" />
<glyph unicode="&#xed;" horiz-adv-x="561" d="M133 0l186 958h103l-186 -958h-103zM354 1112l178 260h105l-178 -260h-105z" />
<glyph unicode="&#xee;" horiz-adv-x="561" d="M133 0l186 958h103l-186 -958h-103zM160 1104l219 264h104l121 -264h-88l-94 213l-174 -213h-88z" />
<glyph unicode="&#xef;" horiz-adv-x="561" d="M133 0l186 958h103l-186 -958h-103zM139 1112l23 125h114l-22 -125h-115zM510 1112l22 125h115l-22 -125h-115z" />
<glyph unicode="&#xf0;" horiz-adv-x="1185" d="M100 547q0 134 59 246.5t171.5 180.5t255.5 68q233 0 370 -176q-27 183 -165 412l-259 -78l-22 74l238 72q-117 172 -236 268h145q118 -124 195 -236l260 80l23 -74q-238 -73 -240 -73q207 -336 207 -725q0 -273 -132.5 -438.5t-363.5 -165.5q-229 0 -367.5 148 t-138.5 417zM223 543q0 -135 41.5 -238.5t128 -165t209.5 -61.5q110 0 198 65t134.5 169t46.5 225q0 80 -19.5 145.5t-53 108t-73.5 73.5t-85 47.5t-82.5 23.5t-71.5 7q-62 0 -126 -25t-120 -72.5t-91.5 -126t-35.5 -175.5z" />
<glyph unicode="&#xf1;" horiz-adv-x="1193" d="M133 -2l186 958h103l-31 -153q38 53 87.5 89.5t97.5 53t83.5 23t67.5 6.5q42 0 81.5 -7.5t78 -25.5t67.5 -45.5t46.5 -70t17.5 -95.5q0 -38 -8 -74l-127 -657h-103l115 590q12 62 12 108q0 98 -50.5 139.5t-151.5 41.5q-134 0 -233.5 -91t-125.5 -223l-110 -567h-103z M485 1092q9 64 50.5 105.5t97.5 41.5q47 0 128.5 -27.5t123.5 -27.5q31 0 55 18t27 55h73q-6 -51 -35 -85.5t-60 -47t-60 -12.5q-45 0 -126 26.5t-122 26.5q-69 0 -82 -73h-70z" />
<glyph unicode="&#xf2;" horiz-adv-x="1183" d="M92 358q0 82 23 168.5t72.5 169.5t118 148t168.5 105t216 40q196 0 299 -110t103 -281q0 -119 -37 -223t-98 -176.5t-139 -125t-161 -77.5t-163 -25q-81 0 -153 24.5t-128 71t-88.5 122t-32.5 169.5zM205 379q0 -142 82 -224.5t227 -82.5q123 0 229.5 68.5t170 187.5 t63.5 260q0 148 -87 225.5t-220 77.5q-131 0 -238.5 -69t-167 -186.5t-59.5 -256.5zM498 1372h104l178 -260h-104z" />
<glyph unicode="&#xf3;" horiz-adv-x="1183" d="M92 358q0 82 23 168.5t72.5 169.5t118 148t168.5 105t216 40q196 0 299 -110t103 -281q0 -119 -37 -223t-98 -176.5t-139 -125t-161 -77.5t-163 -25q-81 0 -153 24.5t-128 71t-88.5 122t-32.5 169.5zM205 379q0 -142 82 -224.5t227 -82.5q123 0 229.5 68.5t170 187.5 t63.5 260q0 148 -87 225.5t-220 77.5q-131 0 -238.5 -69t-167 -186.5t-59.5 -256.5zM662 1112l178 260h104l-178 -260h-104z" />
<glyph unicode="&#xf4;" horiz-adv-x="1183" d="M92 358q0 82 23 168.5t72.5 169.5t118 148t168.5 105t216 40q196 0 299 -110t103 -281q0 -119 -37 -223t-98 -176.5t-139 -125t-161 -77.5t-163 -25q-81 0 -153 24.5t-128 71t-88.5 122t-32.5 169.5zM205 379q0 -142 82 -224.5t227 -82.5q123 0 229.5 68.5t170 187.5 t63.5 260q0 148 -87 225.5t-220 77.5q-131 0 -238.5 -69t-167 -186.5t-59.5 -256.5zM477 1112l219 264h105l121 -264h-88l-95 213l-174 -213h-88z" />
<glyph unicode="&#xf5;" horiz-adv-x="1183" d="M92 358q0 82 23 168.5t72.5 169.5t118 148t168.5 105t216 40q196 0 299 -110t103 -281q0 -119 -37 -223t-98 -176.5t-139 -125t-161 -77.5t-163 -25q-81 0 -153 24.5t-128 71t-88.5 122t-32.5 169.5zM205 379q0 -142 82 -224.5t227 -82.5q123 0 229.5 68.5t170 187.5 t63.5 260q0 148 -87 225.5t-220 77.5q-131 0 -238.5 -69t-167 -186.5t-59.5 -256.5zM444 1092q9 64 50.5 105.5t97.5 41.5q47 0 128.5 -27.5t123.5 -27.5q31 0 55 18t27 55h73q-6 -51 -35 -85.5t-60 -47t-60 -12.5q-45 0 -125.5 26.5t-122.5 26.5q-69 0 -82 -73h-70z" />
<glyph unicode="&#xf6;" horiz-adv-x="1183" d="M92 358q0 82 23 168.5t72.5 169.5t118 148t168.5 105t216 40q196 0 299 -110t103 -281q0 -119 -37 -223t-98 -176.5t-139 -125t-161 -77.5t-163 -25q-81 0 -153 24.5t-128 71t-88.5 122t-32.5 169.5zM205 379q0 -142 82 -224.5t227 -82.5q123 0 229.5 68.5t170 187.5 t63.5 260q0 148 -87 225.5t-220 77.5q-131 0 -238.5 -69t-167 -186.5t-59.5 -256.5zM467 1112l22 125h115l-22 -125h-115zM838 1112l22 125h115l-23 -125h-114z" />
<glyph unicode="&#xf7;" horiz-adv-x="1126" d="M174 406v112h776v-112h-776zM444 166q0 47 34 81t81 34q48 0 80.5 -33t32.5 -82q0 -50 -33.5 -82.5t-85.5 -32.5q-44 0 -76.5 34t-32.5 81zM444 760q0 47 34 80.5t81 33.5q48 0 80.5 -32.5t32.5 -81.5q0 -50 -33.5 -82.5t-85.5 -32.5q-44 0 -76.5 34t-32.5 81z" />
<glyph unicode="&#xf8;" horiz-adv-x="1183" d="M41 -82l147 168q-100 103 -100 272q0 82 23 168.5t72.5 169.5t118 148t168.5 105t216 40q139 0 236 -59l180 207l43 -41l-174 -203q116 -107 116 -295q0 -119 -37 -223t-98 -176.5t-139 -125t-161 -77.5t-163 -25q-144 0 -253 74l-150 -172zM201 379q0 -124 63 -205 l582 668q-73 49 -180 49q-131 0 -238.5 -69t-167 -186.5t-59.5 -256.5zM309 131q77 -59 201 -59q123 0 229.5 68.5t170 187.5t63.5 260q0 137 -80 217z" />
<glyph unicode="&#xf9;" horiz-adv-x="1193" d="M156 225q0 20 8 74l127 657h102l-114 -589q-15 -77 -15 -109q0 -97 51.5 -138.5t153.5 -41.5q134 0 233 90.5t125 222.5l111 567h102l-186 -958h-102l30 154q-38 -53 -87.5 -89.5t-97.5 -53t-83.5 -23t-67.5 -6.5q-53 0 -102 12.5t-92.5 39.5t-69.5 76t-26 115zM498 1372 h104l178 -260h-104z" />
<glyph unicode="&#xfa;" horiz-adv-x="1193" d="M156 225q0 20 8 74l127 657h102l-114 -589q-15 -77 -15 -109q0 -97 51.5 -138.5t153.5 -41.5q134 0 233 90.5t125 222.5l111 567h102l-186 -958h-102l30 154q-38 -53 -87.5 -89.5t-97.5 -53t-83.5 -23t-67.5 -6.5q-53 0 -102 12.5t-92.5 39.5t-69.5 76t-26 115zM600 1112 l178 260h105l-178 -260h-105z" />
<glyph unicode="&#xfb;" horiz-adv-x="1193" d="M156 225q0 20 8 74l127 657h102l-114 -589q-15 -77 -15 -109q0 -97 51.5 -138.5t153.5 -41.5q134 0 233 90.5t125 222.5l111 567h102l-186 -958h-102l30 154q-38 -53 -87.5 -89.5t-97.5 -53t-83.5 -23t-67.5 -6.5q-53 0 -102 12.5t-92.5 39.5t-69.5 76t-26 115zM457 1112 l219 264h104l121 -264h-88l-94 213l-174 -213h-88z" />
<glyph unicode="&#xfc;" horiz-adv-x="1193" d="M156 225q0 20 8 74l127 657h102l-114 -589q-15 -77 -15 -109q0 -97 51.5 -138.5t153.5 -41.5q134 0 233 90.5t125 222.5l111 567h102l-186 -958h-102l30 154q-38 -53 -87.5 -89.5t-97.5 -53t-83.5 -23t-67.5 -6.5q-53 0 -102 12.5t-92.5 39.5t-69.5 76t-26 115zM446 1112 l23 125h115l-23 -125h-115zM817 1112l23 125h114l-22 -125h-115z" />
<glyph unicode="&#xfd;" horiz-adv-x="940" d="M-109 -393l43 90q59 -21 109 -21q49 0 97.5 31.5t82.5 76t56.5 85t29.5 65.5l-151 1024h110l127 -864l422 864h107l-537 -1083q-76 -154 -164.5 -221.5t-193.5 -67.5q-88 0 -138 21zM498 1112l178 260h104l-178 -260h-104z" />
<glyph unicode="&#xfe;" horiz-adv-x="1191" d="M18 -403l396 2013h100l-166 -822q52 74 162 132.5t252 58.5q161 0 255.5 -100.5t94.5 -276.5q0 -113 -38.5 -223t-107.5 -198t-174.5 -142.5t-228.5 -54.5q-69 0 -130.5 20t-102 50t-66 60t-35.5 56l-110 -573h-101zM285 381q0 -46 9 -88t30.5 -82.5t54.5 -70.5t84 -48 t115 -18q93 0 174 47.5t134 123t83 167.5t30 184q0 133 -68.5 212t-203.5 79q-119 0 -221.5 -71t-161.5 -187.5t-59 -247.5z" />
<glyph unicode="&#xff;" horiz-adv-x="940" d="M-109 -393l43 90q59 -21 109 -21q49 0 97.5 31.5t82.5 76t56.5 85t29.5 65.5l-151 1024h110l127 -864l422 864h107l-537 -1083q-76 -154 -164.5 -221.5t-193.5 -67.5q-88 0 -138 21zM297 1112l22 125h115l-22 -125h-115zM668 1112l22 125h115l-23 -125h-114z" />
<glyph unicode="&#x152;" horiz-adv-x="2543" d="M80 627q0 117 34 237t95 228.5t150 204.5t193.5 166t231.5 110.5t258 40.5q214 0 368.5 -89.5t231.5 -256.5l66 338h799l-19 -97h-682l-123 -632h656l-19 -99h-655l-131 -678h733l-18 -100h-854l63 328q-141 -167 -323 -261t-387 -94q-303 0 -485.5 177t-182.5 477z M209 659q0 -264 151 -418.5t410 -154.5q141 0 268.5 50.5t223.5 137.5t167 200t107.5 242.5t36.5 260.5q0 253 -147 394.5t-400 141.5q-152 0 -302.5 -75t-262.5 -194.5t-182 -275.5t-70 -309z" />
<glyph unicode="&#x153;" horiz-adv-x="1968" d="M88 358q0 82 23 168.5t72.5 169.5t118 148t168.5 105t216 40q148 0 244.5 -74.5t134.5 -191.5q84 118 209 189t262 71q157 0 253.5 -86t96.5 -264q0 -70 -14 -144h-793q-8 -47 -8 -94q0 -85 26.5 -149t70.5 -99.5t95 -53t107 -17.5q204 0 373 162l51 -86 q-115 -88 -214.5 -128t-227.5 -40q-127 0 -229 75.5t-144 196.5q-88 -129 -224.5 -207t-265.5 -78q-110 0 -199 41.5t-145.5 131t-56.5 214.5zM201 379q0 -142 82 -224.5t227 -82.5q123 0 229.5 68.5t170 187.5t63.5 260q0 148 -87 225.5t-220 77.5q-131 0 -238.5 -69 t-167 -186.5t-59.5 -256.5zM1104 586h672q4 36 4 51q0 113 -70 183.5t-188 70.5q-59 0 -118.5 -17.5t-117.5 -52.5t-106.5 -95.5t-75.5 -139.5z" />
<glyph unicode="&#x178;" horiz-adv-x="1191" d="M158 1604h125l317 -732l588 734h135l-688 -854l-148 -752h-114l147 750zM487 1726l23 125h115l-23 -125h-115zM858 1726l23 125h114l-22 -125h-115z" />
<glyph unicode="&#x2c6;" horiz-adv-x="659" d="M109 1112l219 264h104l121 -264h-88l-94 213l-174 -213h-88z" />
<glyph unicode="&#x2dc;" horiz-adv-x="1810" d="M629 1092q9 64 50 105.5t97 41.5q47 0 128.5 -27.5t123.5 -27.5q31 0 55 18t27 55h74q-6 -51 -35.5 -85.5t-60.5 -47t-60 -12.5q-44 0 -125 26.5t-123 26.5q-69 0 -82 -73h-69z" />
<glyph unicode="&#x2000;" horiz-adv-x="1100" />
<glyph unicode="&#x2001;" horiz-adv-x="2200" />
<glyph unicode="&#x2002;" horiz-adv-x="1100" />
<glyph unicode="&#x2003;" horiz-adv-x="2200" />
<glyph unicode="&#x2004;" horiz-adv-x="733" />
<glyph unicode="&#x2005;" horiz-adv-x="550" />
<glyph unicode="&#x2006;" horiz-adv-x="366" />
<glyph unicode="&#x2007;" horiz-adv-x="366" />
<glyph unicode="&#x2008;" horiz-adv-x="275" />
<glyph unicode="&#x2009;" horiz-adv-x="440" />
<glyph unicode="&#x200a;" horiz-adv-x="122" />
<glyph unicode="&#x2010;" horiz-adv-x="641" d="M94 463l17 82h436l-17 -82h-436z" />
<glyph unicode="&#x2011;" horiz-adv-x="641" d="M94 463l17 82h436l-17 -82h-436z" />
<glyph unicode="&#x2012;" horiz-adv-x="641" d="M94 463l17 82h436l-17 -82h-436z" />
<glyph unicode="&#x2013;" horiz-adv-x="1024" d="M61 463l17 82h887l-17 -82h-887z" />
<glyph unicode="&#x2014;" horiz-adv-x="2048" d="M61 463l17 82h1911l-17 -82h-1911z" />
<glyph unicode="&#x2018;" horiz-adv-x="512" d="M131 1176l16 84q19 99 44 164.5t49 99.5t71 86h72q-44 -87 -66.5 -145.5t-35.5 -129.5l-31 -159h-119z" />
<glyph unicode="&#x2019;" horiz-adv-x="512" d="M131 1176q44 89 66 146t36 128l31 160h119l-16 -84q-15 -75 -31 -127.5t-38 -93t-41 -65.5t-54 -64h-72z" />
<glyph unicode="&#x201a;" horiz-adv-x="512" d="M104 -270q17 18 31 35.5t26 37.5t19.5 33.5t17.5 37.5t14 34t14.5 39.5t13.5 38.5q20 67 43 186l12 64h113q-35 -219 -99 -336q-14 -26 -33 -51.5t-31 -40t-37 -41.5t-34 -37h-70z" />
<glyph unicode="&#x201c;" horiz-adv-x="921" d="M104 1100q2 7 8.5 36.5t8.5 39.5q26 148 82 260q12 25 30 50t32 40.5t38.5 41.5t34.5 38h70q-13 -14 -24 -27.5t-21 -29t-16.5 -24.5t-15 -27.5t-12 -25t-12 -29.5t-10.5 -27.5t-11.5 -32.5t-11.5 -33q-11 -31 -25.5 -93.5t-22.5 -109.5l-9 -47h-113zM514 1100 q2 6 7.5 35.5t8.5 40.5q26 148 82 260q12 25 30 50t32.5 40.5t38.5 41.5t35 38h69q-15 -16 -27.5 -32.5t-21.5 -28.5t-19 -31.5t-14.5 -28t-13.5 -32t-11.5 -30.5t-12.5 -36t-13 -37q-11 -31 -25.5 -93.5t-22.5 -109.5l-9 -47h-113z" />
<glyph unicode="&#x201d;" horiz-adv-x="921" d="M104 1100q12 13 23 26t19 23.5t16.5 25t14 22.5t12.5 24.5t10.5 23.5t10.5 26.5t9.5 25.5t10.5 29t10 30q11 31 25 93.5t22 109.5l8 47h113q-7 -44 -15 -76q-31 -158 -82 -260q-16 -32 -36 -58.5t-57 -65t-44 -46.5h-70zM514 1100q15 16 28 32.5t22 28.5t19 31.5t15 27.5 t14 32.5t11.5 30.5t13 36.5t12.5 36.5q11 31 25 93.5t22 109.5l9 47h112q-10 -58 -14 -76q-31 -158 -82 -260q-16 -32 -36 -58.5t-57 -65t-44 -46.5h-70z" />
<glyph unicode="&#x201e;" horiz-adv-x="512" d="M-100 -270q20 21 36.5 44t26.5 38.5t22.5 44t16.5 38.5t17 46t16 45q20 67 43 186l12 64h113q-35 -219 -99 -336q-15 -28 -33.5 -53.5t-31.5 -40.5t-36 -39.5t-34 -36.5h-69zM309 -270q20 21 36.5 44t26.5 38.5t22.5 44t16.5 38.5t17 46t16 45q20 67 43 186l13 64h112 q-35 -221 -98 -336q-15 -28 -33.5 -53.5t-31.5 -40.5t-36 -39.5t-34 -36.5h-70z" />
<glyph unicode="&#x2022;" horiz-adv-x="1024" d="M180 647l355 406l346 -418l-344 -406z" />
<glyph unicode="&#x2026;" horiz-adv-x="2048" d="M334 4l33 160h118l-32 -160h-119zM973 4l33 160h118l-32 -160h-119zM1565 4l32 160h119l-33 -160h-118z" />
<glyph unicode="&#x202f;" horiz-adv-x="440" />
<glyph unicode="&#x2039;" horiz-adv-x="495" d="M51 432l23 119l370 289l-26 -133l-273 -230l187 -211l-23 -123z" />
<glyph unicode="&#x203a;" horiz-adv-x="495" d="M51 139l27 133l272 230l-186 211l22 123l258 -289l-22 -119z" />
<glyph unicode="&#x205f;" horiz-adv-x="550" />
<glyph unicode="&#x2122;" horiz-adv-x="1720" d="M72 1532v78h510v-78h-211v-727h-88v727h-211zM772 805v805h105l280 -439l262 439h107v-805h-82v665l-270 -403h-44l-278 406v-668h-80z" />
<glyph unicode="&#x25fc;" horiz-adv-x="962" d="M0 0v963h963v-963h-963z" />
<glyph unicode="&#xfb01;" horiz-adv-x="1105" d="M135 0l166 864h-158l19 92h157l80 402q10 51 26.5 90.5t34.5 66t45 45t50.5 28.5t60.5 15t64 6t72 1l-17 -88h-18q-33 0 -51.5 -1t-42 -4t-36 -10.5t-27 -20t-24 -32.5t-18 -47.5t-16.5 -65.5l-72 -385h533l-189 -956h-102l168 864h-428l-170 -864h-107zM905 1188l45 231 h103l-45 -231h-103z" />
<glyph unicode="&#xfb02;" horiz-adv-x="1110" d="M135 -2l166 864h-158l19 92h157l80 402q10 52 25.5 91.5t32 66.5t41.5 45.5t46 28t55 15t58.5 6.5t65.5 1h31l-17 -88q-8 -2 -20 -2q-33 0 -51.5 -1t-42 -4t-36 -10.5t-27 -20t-24 -32.5t-18 -47.5t-16.5 -65.5l-72 -385h193l-19 -92h-192l-170 -864h-107zM676 0 l313 1608h103l-314 -1608h-102z" />
</font>
</defs>
</svg>
